<svg width="191" height="228" viewBox="0 0 191 228" fill="none" xmlns="http://www.w3.org/2000/svg">
<g filter="url(#filter0_dd_367_4167)">
<path d="M51.7987 32.709L32.998 51.5097M158.336 51.5097L139.535 32.709M58.0656 132.979L45.5318 145.513M133.268 132.979L145.802 145.513M76.8663 98.5113L89.4001 111.045L117.601 82.8441M95.6669 145.513C108.964 145.513 121.716 140.231 131.118 130.829C140.52 121.427 145.802 108.675 145.802 95.3779C145.802 82.0812 140.52 69.3292 131.118 59.927C121.716 50.5248 108.964 45.2428 95.6669 45.2428C82.3703 45.2428 69.6182 50.5248 60.2161 59.927C50.8139 69.3292 45.5318 82.0812 45.5318 95.3779C45.5318 108.675 50.8139 121.427 60.2161 130.829C69.6182 140.231 82.3703 145.513 95.6669 145.513Z" stroke="#FF007A" stroke-width="12.6083" stroke-linecap="round" stroke-linejoin="round"/>
</g>
<defs>
<filter id="filter0_dd_367_4167" x="-5.84869" y="-12.4048" width="203.031" height="251.922" filterUnits="userSpaceOnUse" color-interpolation-filters="sRGB">
<feFlood flood-opacity="0" result="BackgroundImageFix"/>
<feColorMatrix in="SourceAlpha" type="matrix" values="0 0 0 0 0 0 0 0 0 0 0 0 0 0 0 0 0 0 127 0" result="hardAlpha"/>
<feOffset dy="50.1263"/>
<feGaussianBlur stdDeviation="12.5382"/>
<feColorMatrix type="matrix" values="0 0 0 0 1 0 0 0 0 0 0 0 0 0 0.478431 0 0 0 0.6 0"/>
<feBlend mode="normal" in2="BackgroundImageFix" result="effect1_dropShadow_367_4167"/>
<feColorMatrix in="SourceAlpha" type="matrix" values="0 0 0 0 0 0 0 0 0 0 0 0 0 0 0 0 0 0 127 0" result="hardAlpha"/>
<feOffset/>
<feGaussianBlur stdDeviation="13.1565"/>
<feColorMatrix type="matrix" values="0 0 0 0 1 0 0 0 0 0 0 0 0 0 0.478431 0 0 0 1 0"/>
<feBlend mode="normal" in2="effect1_dropShadow_367_4167" result="effect2_dropShadow_367_4167"/>
<feBlend mode="normal" in="SourceGraphic" in2="effect2_dropShadow_367_4167" result="shape"/>
</filter>
</defs>
</svg>
