<svg width="42" height="49" viewBox="0 0 42 49" fill="none" xmlns="http://www.w3.org/2000/svg">
<g filter="url(#filter0_dd_746_8218)">
<path d="M21.1078 15.8362V21.2417M21.1078 26.6471H21.1213M19.2366 8.93317L8.12187 28.1313C7.50538 29.1962 7.19713 29.7286 7.24269 30.1656C7.28243 30.5467 7.48212 30.8931 7.79206 31.1184C8.14741 31.3768 8.76263 31.3768 9.99307 31.3768H32.2225C33.4529 31.3768 34.0681 31.3768 34.4235 31.1184C34.7334 30.8931 34.9331 30.5467 34.9729 30.1656C35.0184 29.7286 34.7102 29.1962 34.0937 28.1313L22.979 8.93317C22.3647 7.87214 22.0575 7.34162 21.6568 7.16344C21.3073 7.00802 20.9083 7.00802 20.5587 7.16344C20.158 7.34162 19.8509 7.87214 19.2366 8.93317Z" stroke="#FFF500" stroke-width="2.61261" stroke-linecap="round" stroke-linejoin="round"/>
</g>
<defs>
<filter id="filter0_dd_746_8218" x="-0.798682" y="-2.01353" width="43.8103" height="54.3391" filterUnits="userSpaceOnUse" color-interpolation-filters="sRGB">
<feFlood flood-opacity="0" result="BackgroundImageFix"/>
<feColorMatrix in="SourceAlpha" type="matrix" values="0 0 0 0 0 0 0 0 0 0 0 0 0 0 0 0 0 0 127 0" result="hardAlpha"/>
<feOffset dy="10.8108"/>
<feGaussianBlur stdDeviation="2.7027"/>
<feColorMatrix type="matrix" values="0 0 0 0 1 0 0 0 0 0.960784 0 0 0 0 0 0 0 0 0.6 0"/>
<feBlend mode="normal" in2="BackgroundImageFix" result="effect1_dropShadow_746_8218"/>
<feColorMatrix in="SourceAlpha" type="matrix" values="0 0 0 0 0 0 0 0 0 0 0 0 0 0 0 0 0 0 127 0" result="hardAlpha"/>
<feOffset/>
<feGaussianBlur stdDeviation="2.84465"/>
<feColorMatrix type="matrix" values="0 0 0 0 1 0 0 0 0 0.960784 0 0 0 0 0 0 0 0 1 0"/>
<feBlend mode="normal" in2="effect1_dropShadow_746_8218" result="effect2_dropShadow_746_8218"/>
<feBlend mode="normal" in="SourceGraphic" in2="effect2_dropShadow_746_8218" result="shape"/>
</filter>
</defs>
</svg>
