<svg width="34" height="52" viewBox="0 0 34 52" fill="none" xmlns="http://www.w3.org/2000/svg">
<g filter="url(#filter0_dd_746_8172)">
<path d="M11.4608 25.4798L10.2894 34.2996L16.4772 30.5869C16.679 30.4658 16.7799 30.4053 16.8876 30.3816C16.9829 30.3607 17.0816 30.3607 17.1769 30.3816C17.2846 30.4053 17.3855 30.4658 17.5873 30.5869L23.7751 34.2996L22.6044 25.476M23.0009 10.3609C23.2092 10.8646 23.6089 11.265 24.1123 11.474L25.8774 12.2052C26.3812 12.4139 26.7814 12.8141 26.9901 13.3179C27.1987 13.8216 27.1987 14.3876 26.9901 14.8914L26.2594 16.6553C26.0507 17.1593 26.0504 17.7259 26.2601 18.2296L26.9894 19.993C27.0929 20.2425 27.1461 20.51 27.1462 20.7801C27.1462 21.0502 27.0931 21.3176 26.9897 21.5672C26.8863 21.8167 26.7348 22.0434 26.5438 22.2344C26.3528 22.4253 26.126 22.5768 25.8765 22.6801L24.1126 23.4107C23.6089 23.619 23.2085 24.0188 22.9995 24.5222L22.2684 26.2874C22.0597 26.7911 21.6595 27.1914 21.1558 27.4C20.652 27.6087 20.086 27.6087 19.5823 27.4L17.8184 26.6694C17.3147 26.4612 16.7489 26.4617 16.2454 26.6706L14.4803 27.4007C13.9769 27.6089 13.4114 27.6087 12.908 27.4002C12.4047 27.1917 12.0047 26.7919 11.7959 26.2887L11.0645 24.523C10.8563 24.0193 10.4565 23.6189 9.95311 23.4099L8.18798 22.6787C7.68446 22.4701 7.28437 22.0702 7.07563 21.5667C6.8669 21.0632 6.86662 20.4975 7.07485 19.9938L7.80546 18.2299C8.0136 17.7261 8.01318 17.1603 7.80428 16.6568L7.07471 14.8904C6.97127 14.6409 6.91801 14.3734 6.91797 14.1033C6.91793 13.8332 6.9711 13.5658 7.07446 13.3162C7.17782 13.0667 7.32933 12.84 7.52034 12.649C7.71135 12.458 7.93812 12.3066 8.18768 12.2033L9.95154 11.4727C10.4548 11.2646 10.8549 10.8653 11.0641 10.3625L11.7953 8.59728C12.0039 8.09352 12.4041 7.69329 12.9079 7.48462C13.4116 7.27596 13.9776 7.27596 14.4813 7.48462L16.2452 8.21526C16.749 8.42341 17.3148 8.42299 17.8182 8.21408L19.5841 7.48576C20.0877 7.27721 20.6536 7.27725 21.1572 7.48587C21.6609 7.6945 22.0611 8.09461 22.2697 8.59824L23.0011 10.364L23.0009 10.3609Z" stroke="#FFA800" stroke-width="2.32441" stroke-linecap="round" stroke-linejoin="round"/>
</g>
<defs>
<filter id="filter0_dd_746_8172" x="-4.81298" y="-1.02978" width="43.6904" height="54.2126" filterUnits="userSpaceOnUse" color-interpolation-filters="sRGB">
<feFlood flood-opacity="0" result="BackgroundImageFix"/>
<feColorMatrix in="SourceAlpha" type="matrix" values="0 0 0 0 0 0 0 0 0 0 0 0 0 0 0 0 0 0 127 0" result="hardAlpha"/>
<feOffset dy="10.7886"/>
<feGaussianBlur stdDeviation="2.69714"/>
<feColorMatrix type="matrix" values="0 0 0 0 1 0 0 0 0 0.658824 0 0 0 0 0 0 0 0 0.6 0"/>
<feBlend mode="normal" in2="BackgroundImageFix" result="effect1_dropShadow_746_8172"/>
<feColorMatrix in="SourceAlpha" type="matrix" values="0 0 0 0 0 0 0 0 0 0 0 0 0 0 0 0 0 0 127 0" result="hardAlpha"/>
<feOffset/>
<feGaussianBlur stdDeviation="2.8313"/>
<feColorMatrix type="matrix" values="0 0 0 0 1 0 0 0 0 0.658824 0 0 0 0 0 0 0 0 1 0"/>
<feBlend mode="normal" in2="effect1_dropShadow_746_8172" result="effect2_dropShadow_746_8172"/>
<feBlend mode="normal" in="SourceGraphic" in2="effect2_dropShadow_746_8172" result="shape"/>
</filter>
</defs>
</svg>
