<svg width="42" height="52" viewBox="0 0 42 52" fill="none" xmlns="http://www.w3.org/2000/svg">
<g filter="url(#filter0_dd_746_8161)">
<path d="M15.5581 23.4092C15.5581 23.4092 17.5756 26.0991 20.938 26.0991C24.3004 26.0991 26.3179 23.4092 26.3179 23.4092M24.9729 16.6843H24.9863M15.5581 16.6843H18.248M34.3877 20.7192C34.3877 28.1473 28.3661 34.1689 20.938 34.1689C13.5099 34.1689 7.48828 28.1473 7.48828 20.7192C7.48828 13.2912 13.5099 7.26953 20.938 7.26953C28.3661 7.26953 34.3877 13.2912 34.3877 20.7192ZM25.6454 16.6843C25.6454 17.0557 25.3443 17.3568 24.9729 17.3568C24.6015 17.3568 24.3004 17.0557 24.3004 16.6843C24.3004 16.3129 24.6015 16.0118 24.9729 16.0118C25.3443 16.0118 25.6454 16.3129 25.6454 16.6843Z" stroke="#00D1FF" stroke-width="2.5629" stroke-linecap="round" stroke-linejoin="round"/>
</g>
<defs>
<filter id="filter0_dd_746_8161" x="-0.877392" y="-1.09224" width="43.6278" height="54.1678" filterUnits="userSpaceOnUse" color-interpolation-filters="sRGB">
<feFlood flood-opacity="0" result="BackgroundImageFix"/>
<feColorMatrix in="SourceAlpha" type="matrix" values="0 0 0 0 0 0 0 0 0 0 0 0 0 0 0 0 0 0 127 0" result="hardAlpha"/>
<feOffset dy="10.8108"/>
<feGaussianBlur stdDeviation="2.7027"/>
<feColorMatrix type="matrix" values="0 0 0 0 0 0 0 0 0 0.819608 0 0 0 0 1 0 0 0 0.6 0"/>
<feBlend mode="normal" in2="BackgroundImageFix" result="effect1_dropShadow_746_8161"/>
<feColorMatrix in="SourceAlpha" type="matrix" values="0 0 0 0 0 0 0 0 0 0 0 0 0 0 0 0 0 0 127 0" result="hardAlpha"/>
<feOffset/>
<feGaussianBlur stdDeviation="2.83713"/>
<feColorMatrix type="matrix" values="0 0 0 0 0 0 0 0 0 0.819608 0 0 0 0 1 0 0 0 1 0"/>
<feBlend mode="normal" in2="effect1_dropShadow_746_8161" result="effect2_dropShadow_746_8161"/>
<feBlend mode="normal" in="SourceGraphic" in2="effect2_dropShadow_746_8161" result="shape"/>
</filter>
</defs>
</svg>
